<svg xmlns="http://www.w3.org/2000/svg" width="476" height="638.5" viewBox="0 0 476 638.5"><g transform="translate(-1107.5 -329)"><path d="M72.171,678.5a50.5,50.5,0,0,1-50.5-50.5V390.6c13.249-5.813,38.358-8.813,82.823,9.883,76.629,32.219,121.038,96.657,210.73,128.876s93.609,27.429,148.033,0c13.892-7,25.23-17.577,34.414-29.446V628a50.5,50.5,0,0,1-50.5,50.5Z" transform="translate(1085.829 289)" fill="#cc83e1"/><circle cx="55" cy="55" r="55" transform="translate(1415 685)" fill="#cc83e1"/><circle cx="6.5" cy="6.5" r="6.5" transform="translate(1198 329)" fill="#cc83e1"/><circle cx="16" cy="16" r="16" transform="translate(1263 653)" fill="#cc83e1"/><circle cx="23.5" cy="23.5" r="23.5" transform="translate(1452 361)" fill="#cc83e1"/></g></svg>