<svg xmlns="http://www.w3.org/2000/svg" width="478" height="601.5" viewBox="0 0 478 601.5"><g transform="translate(-335.5 -366)"><path d="M131.863,678.5a50.5,50.5,0,0,1-50.5-50.5V586.945c23.585-25.669,14.217-23.649,47.65-22.633,33.891,1.031,39.325,37.1,86.927,27.823s39.841-59.512,103.485-64.922c26.945-2.29,47.382,12.137,66.554,26.564,26.109,19.649,49.872,39.3,84.533,16.717,59.31-38.639,76.394-182.341,88.851-199.3V628a50.5,50.5,0,0,1-50.5,50.5Z" transform="translate(254.138 289)" fill="#83e1a2"/><circle cx="24" cy="24" r="24" transform="translate(407 729)" fill="#83e1a2"/><circle cx="18.5" cy="18.5" r="18.5" transform="translate(700 366)" fill="#83e1a2"/><circle cx="6" cy="6" r="6" transform="translate(431 366)" fill="#83e1a2"/><circle cx="23" cy="23" r="23" transform="translate(607 639)" fill="#83e1a2"/></g></svg>