<svg xmlns="http://www.w3.org/2000/svg" width="476" height="638.5" viewBox="0 0 476 638.5"><g transform="translate(-1088.5 -321)"><path d="M72.171,545.5a50.5,50.5,0,0,1-50.5-50.5V388.58c13.249-3.168,38.358-4.8,82.823,5.386,76.629,17.561,121.038,52.683,210.73,70.244s93.609,14.951,148.033,0a109.789,109.789,0,0,0,34.414-16.05V495a50.5,50.5,0,0,1-50.5,50.5Z" transform="translate(1066.829 414)" fill="#cc83e1"/><circle cx="24" cy="24" r="24" transform="translate(1506 789)" fill="#cc83e1" opacity="0.2"/><circle cx="6.5" cy="6.5" r="6.5" transform="translate(1179 321)" fill="#cc83e1" opacity="0.2"/><circle cx="16" cy="16" r="16" transform="translate(1115 605)" fill="#cc83e1" opacity="0.2"/><circle cx="23.5" cy="23.5" r="23.5" transform="translate(1459 328)" fill="#cc83e1" opacity="0.2"/></g></svg>